<svg width="266" height="271" viewBox="0 0 266 271" fill="none" xmlns="http://www.w3.org/2000/svg">
<g filter="url(#filter0_d_2_112)">
<rect x="4" y="2" width="258" height="263" rx="5" fill="#FF0000"/>
</g>
<mask id="mask0_2_112" style="mask-type:alpha" maskUnits="userSpaceOnUse" x="4" y="2" width="258" height="263">
<rect x="4" y="2" width="258" height="263" rx="5" fill="white"/>
</mask>
<g mask="url(#mask0_2_112)">
<rect opacity="0.097497" x="183" y="-54.8947" width="79" height="397.523" fill="black"/>
<mask id="mask1_2_112" style="mask-type:alpha" maskUnits="userSpaceOnUse" x="4" y="124" width="179" height="161">
<rect x="4" y="124" width="179" height="161" fill="white"/>
</mask>
<g mask="url(#mask1_2_112)">
<path opacity="0.100446" fill-rule="evenodd" clip-rule="evenodd" d="M-47.7754 179.22C-47.7754 179.22 -32.796 155.478 -20.0339 179.22C-7.27175 202.961 -2.59653 202.318 -2.59653 202.318C-2.59653 202.318 2.96148 202.769 12.8382 174.659C22.715 146.55 36.3151 162.065 36.3151 162.065L49.4431 179.22C49.4431 179.22 62.1044 196.337 73.0991 185.498C84.0938 174.659 92.1761 173.269 92.1761 173.269C92.1761 173.269 103.075 172.772 111.74 188.183C120.406 203.594 127.494 205.025 127.494 205.025C127.494 205.025 138.797 209.283 153.095 174.659C167.393 140.035 182.398 139.616 182.398 139.616C182.398 139.616 195.103 138.633 201.305 162.065C207.507 185.498 217.103 185.498 217.103 185.498C217.103 185.498 241.258 186.192 256.401 114.91C271.545 43.6286 291.453 114.91 291.453 114.91C291.453 114.91 299.145 149.227 313.865 152.447C328.584 155.667 313.865 308.704 313.865 308.704H-47.7754V179.22Z" fill="url(#paint0_linear_2_112)"/>
</g>
<path d="M-47.7754 179.213C-47.7754 179.213 -32.7811 155.473 -20.0063 179.213C-7.23146 202.953 -2.55159 202.31 -2.55159 202.31C-2.55159 202.31 3.01195 202.76 12.8985 174.653C22.7851 146.546 36.3988 162.06 36.3988 162.06L49.5398 179.213C49.5398 179.213 62.2137 196.329 73.2194 185.491C84.225 174.653 92.3153 173.263 92.3153 173.263C92.3153 173.263 103.225 172.766 111.899 188.176C120.573 203.586 127.668 205.017 127.668 205.017C127.668 205.017 138.982 209.275 153.295 174.653C167.607 140.031 182.627 139.612 182.627 139.612C182.627 139.612 195.344 138.629 201.552 162.06C207.76 185.491 217.367 185.491 217.367 185.491C217.367 185.491 241.545 186.184 256.704 114.908C271.863 43.631 291.791 114.908 291.791 114.908C291.791 114.908 299.49 149.222 314.225 152.442" stroke="url(#paint1_linear_2_112)" stroke-width="2"/>
</g>
<defs>
<filter id="filter0_d_2_112" x="0" y="0" width="266" height="271" filterUnits="userSpaceOnUse" color-interpolation-filters="sRGB">
<feFlood flood-opacity="0" result="BackgroundImageFix"/>
<feColorMatrix in="SourceAlpha" type="matrix" values="0 0 0 0 0 0 0 0 0 0 0 0 0 0 0 0 0 0 127 0" result="hardAlpha"/>
<feOffset dy="2"/>
<feGaussianBlur stdDeviation="2"/>
<feColorMatrix type="matrix" values="0 0 0 0 0 0 0 0 0 0 0 0 0 0 0 0 0 0 0.0212249 0"/>
<feBlend mode="normal" in2="BackgroundImageFix" result="effect1_dropShadow_2_112"/>
<feBlend mode="normal" in="SourceGraphic" in2="effect1_dropShadow_2_112" result="shape"/>
</filter>
<linearGradient id="paint0_linear_2_112" x1="-47.7754" y1="79.2693" x2="-47.7754" y2="308.704" gradientUnits="userSpaceOnUse">
<stop stop-color="white"/>
<stop offset="1" stop-color="white" stop-opacity="0.106534"/>
</linearGradient>
<linearGradient id="paint1_linear_2_112" x1="309.906" y1="80.0222" x2="-47.7754" y2="80.0222" gradientUnits="userSpaceOnUse">
<stop stop-color="white"/>
<stop offset="0.810441" stop-color="white" stop-opacity="0.403191"/>
</linearGradient>
</defs>
</svg>
